<mxfile host="app.diagrams.net" modified="2024-01-12T14:55:06.220Z" agent="Mozilla/5.0 (Windows NT 10.0; Win64; x64) AppleWebKit/537.36 (KHTML, like Gecko) Chrome/120.0.0.0 Safari/537.36" version="22.1.18" etag="PrOaZDxEg1drH9ml7Qx1" type="github">
  <diagram name="Page-1" id="Nbm-9Ras73khZprD8Aoc">
    <mxGraphModel>
      <root>
        <mxCell id="0" />
        <mxCell id="1" parent="0" />
      </root>
    </mxGraphModel>
  </diagram>
</mxfile>
